<svg width="50" height="44" viewBox="0 0 50 44" fill="none" xmlns="http://www.w3.org/2000/svg">
<g clip-path="url(#clip0_357_44)">
<g filter="url(#filter0_d_357_44)">
<path d="M24.2493 9.24683L21.7664 15.0048L19.987 11.7659C21.4866 8.4942 22.3457 4.95412 22.6353 1.17548H11.628L8.35889 5.23686C17.0249 10.0961 21.7797 19.899 24.332 32.4842C25.0289 28.4936 25.9045 24.8621 27.2287 22.0993L29.3805 24.8755C27.3651 30.3773 26.4937 36.9991 25.9045 43.8973L38.7326 27.8572C32.4195 24.3953 27.5597 18.259 24.2493 9.24683ZM17.8765 11.9202C19.3456 9.07335 20.5663 6.04019 21.518 2.87201C21.0812 5.81059 20.1508 8.79444 18.7869 11.8173L21.187 16.1358L17.8765 11.9202ZM24.4974 27.0346C25.0164 24.2585 25.5634 21.1791 25.9045 20.2486L26.4009 20.9683C26.003 21.8557 25.2332 24.5279 24.4974 27.0346ZM27.808 39.7843L36.0843 28.3715C30.1584 24.019 25.8772 18.7556 24.2493 12.023C26.8207 18.8019 31.1674 24.1609 37.0774 28.2684L27.808 39.7843Z" fill="url(#paint0_linear_357_44)"/>
</g>
<g filter="url(#filter1_d_357_44)">
<path d="M42.457 8.21863C38.6024 10.1846 35.8989 12.4466 34.3462 15.0047L32.4426 12.1258C34.1128 9.38152 36.7166 7.12464 40.2224 5.33969L36.8291 1.22688L25.8218 1.12406C26.6857 11.4554 31.8568 19.3838 41.2155 24.9783L48.4987 15.8273L42.457 8.21863ZM30.5391 11.8173C32.5776 9.11318 34.6972 6.51593 37.5739 4.92839L36.6637 2.76918L38.4016 4.92839C35.557 6.65371 33.2612 9.16869 31.2014 12.023C31.7078 13.0512 32.5428 14.2223 33.4357 15.416C32.3343 14.2686 31.318 13.0882 30.5391 11.8173ZM46.2641 15.7245L42.5397 10.0694L47.0916 15.8273C47.0916 15.8273 41.2982 23.0247 41.2982 22.9219C41.2982 22.819 46.2641 15.7245 46.2641 15.7245Z" fill="url(#paint1_linear_357_44)"/>
</g>
<g filter="url(#filter2_d_357_44)">
<path d="M6.04165 8.21863L0 15.7245L7.36583 25.0811C9.82223 23.7444 12.1222 22.3399 13.7385 20.6598L15.311 23.7444C13.448 25.3659 11.5983 26.7642 9.76594 27.8572L22.7596 44C21.0612 27.8592 17.5721 13.666 6.04165 8.21863ZM8.02794 23.3332C9.80548 22.1239 11.4707 20.6758 12.9937 19.0147L13.3247 19.426C11.5591 21.1582 9.79352 22.4606 8.02794 23.3332ZM6.62098 9.76093C17.2601 15.9466 19.3664 28.0803 21.3527 40.2986C18.8185 26.282 14.5595 15.0561 6.62098 9.76093Z" fill="url(#paint2_linear_357_44)"/>
</g>
</g>
<defs>
<filter id="filter0_d_357_44" x="4.35889" y="1.17548" width="38.3738" height="50.7218" filterUnits="userSpaceOnUse" color-interpolation-filters="sRGB">
<feFlood flood-opacity="0" result="BackgroundImageFix"/>
<feColorMatrix in="SourceAlpha" type="matrix" values="0 0 0 0 0 0 0 0 0 0 0 0 0 0 0 0 0 0 127 0" result="hardAlpha"/>
<feOffset dy="4"/>
<feGaussianBlur stdDeviation="2"/>
<feComposite in2="hardAlpha" operator="out"/>
<feColorMatrix type="matrix" values="0 0 0 0 0 0 0 0 0 0 0 0 0 0 0 0 0 0 0.25 0"/>
<feBlend mode="normal" in2="BackgroundImageFix" result="effect1_dropShadow_357_44"/>
<feBlend mode="normal" in="SourceGraphic" in2="effect1_dropShadow_357_44" result="shape"/>
</filter>
<filter id="filter1_d_357_44" x="21.8218" y="1.12406" width="30.6768" height="31.8542" filterUnits="userSpaceOnUse" color-interpolation-filters="sRGB">
<feFlood flood-opacity="0" result="BackgroundImageFix"/>
<feColorMatrix in="SourceAlpha" type="matrix" values="0 0 0 0 0 0 0 0 0 0 0 0 0 0 0 0 0 0 127 0" result="hardAlpha"/>
<feOffset dy="4"/>
<feGaussianBlur stdDeviation="2"/>
<feComposite in2="hardAlpha" operator="out"/>
<feColorMatrix type="matrix" values="0 0 0 0 0 0 0 0 0 0 0 0 0 0 0 0 0 0 0.25 0"/>
<feBlend mode="normal" in2="BackgroundImageFix" result="effect1_dropShadow_357_44"/>
<feBlend mode="normal" in="SourceGraphic" in2="effect1_dropShadow_357_44" result="shape"/>
</filter>
<filter id="filter2_d_357_44" x="-4" y="8.21863" width="30.7595" height="43.7814" filterUnits="userSpaceOnUse" color-interpolation-filters="sRGB">
<feFlood flood-opacity="0" result="BackgroundImageFix"/>
<feColorMatrix in="SourceAlpha" type="matrix" values="0 0 0 0 0 0 0 0 0 0 0 0 0 0 0 0 0 0 127 0" result="hardAlpha"/>
<feOffset dy="4"/>
<feGaussianBlur stdDeviation="2"/>
<feComposite in2="hardAlpha" operator="out"/>
<feColorMatrix type="matrix" values="0 0 0 0 0 0 0 0 0 0 0 0 0 0 0 0 0 0 0.25 0"/>
<feBlend mode="normal" in2="BackgroundImageFix" result="effect1_dropShadow_357_44"/>
<feBlend mode="normal" in="SourceGraphic" in2="effect1_dropShadow_357_44" result="shape"/>
</filter>
<linearGradient id="paint0_linear_357_44" x1="23.5457" y1="1.17548" x2="23.5457" y2="43.8973" gradientUnits="userSpaceOnUse">
<stop stop-color="#FFA800"/>
<stop offset="1" stop-color="#FFD53A"/>
</linearGradient>
<linearGradient id="paint1_linear_357_44" x1="37.1601" y1="1.12406" x2="37.1601" y2="24.9783" gradientUnits="userSpaceOnUse">
<stop stop-color="#FFA800"/>
<stop offset="1" stop-color="#FFD53A"/>
</linearGradient>
<linearGradient id="paint2_linear_357_44" x1="11.3798" y1="8.21863" x2="11.3798" y2="44" gradientUnits="userSpaceOnUse">
<stop stop-color="#FFA800"/>
<stop offset="1" stop-color="#FFD53A"/>
</linearGradient>
<clipPath id="clip0_357_44">
<rect width="50" height="44" fill="white"/>
</clipPath>
</defs>
</svg>
